<?xml version="1.0" encoding="utf-8"?>
<!-- Generator: Adobe Illustrator 16.0.0, SVG Export Plug-In . SVG Version: 6.00 Build 0)  -->
<!DOCTYPE svg PUBLIC "-//W3C//DTD SVG 1.1//EN" "http://www.w3.org/Graphics/SVG/1.1/DTD/svg11.dtd">
<svg version="1.1" id="Calque_1" xmlns="http://www.w3.org/2000/svg" xmlns:xlink="http://www.w3.org/1999/xlink" x="0px" y="0px"
	 width="100.297px" height="116.662px" viewBox="0 0 100.297 116.662" enable-background="new 0 0 100.297 116.662"
	 xml:space="preserve">
<g>
	<g>
		
			<rect x="20.25" y="21.067" fill="none" stroke="#212529" stroke-width="3" stroke-miterlimit="10" width="65.695" height="83.728"/>
		<path fill="none" stroke="#212529" stroke-width="3" stroke-miterlimit="10" d="M87.152,8.209H17.717
			c-3.551,0-6.43,2.878-6.43,6.429l0,0c0,3.551,2.879,6.43,6.43,6.43h68.229"/>
		<path fill="none" stroke="#212529" stroke-width="3" stroke-miterlimit="10" d="M11.287,14.638V98.53c0,0,1.044,6.265,8.963,6.265
			"/>
		<g>
			<line fill="none" stroke="#212529" stroke-width="3" stroke-miterlimit="10" x1="11.797" y1="14.638" x2="81.965" y2="14.638"/>
		</g>
		
			<line fill="none" stroke="#212529" stroke-width="9.1724" stroke-miterlimit="10" x1="67.15" y1="14.638" x2="67.15" y2="56.222"/>
	</g>
	<path fill="none" stroke="#6C757D" stroke-width="3" stroke-miterlimit="10" d="M63.318,72.19c0,2.24-3.969,3.435-5.016,5.243
		c-1.078,1.865-0.166,5.89-2.031,6.969c-1.809,1.046-4.813-1.726-7.053-1.726c-2.238,0-5.242,2.771-7.051,1.726
		c-1.865-1.079-0.952-5.104-2.031-6.97c-1.047-1.808-5.016-3.002-5.016-5.242c0-2.239,3.969-3.434,5.016-5.242
		c1.079-1.865,0.166-5.89,2.031-6.969c1.809-1.046,4.813,1.726,7.051,1.726c2.24,0,5.244-2.771,7.053-1.726
		c1.865,1.079,0.953,5.104,2.031,6.97C59.35,68.757,63.318,69.951,63.318,72.19z"/>
</g>
</svg>
