<?xml version="1.0" encoding="utf-8"?>
<!-- Generator: Adobe Illustrator 16.0.0, SVG Export Plug-In . SVG Version: 6.00 Build 0)  -->
<!DOCTYPE svg PUBLIC "-//W3C//DTD SVG 1.1//EN" "http://www.w3.org/Graphics/SVG/1.1/DTD/svg11.dtd">
<svg version="1.1" id="Calque_1" xmlns="http://www.w3.org/2000/svg" xmlns:xlink="http://www.w3.org/1999/xlink" x="0px" y="0px"
	 width="100.297px" height="116.662px" viewBox="0 0 100.297 116.662" enable-background="new 0 0 100.297 116.662"
	 xml:space="preserve">
<g>
	<g>
		<g>
			<g>
				<g>
					<path fill="none" stroke="#6C757D" stroke-width="3" stroke-miterlimit="10" d="M98.93,90.889
						c-22.3-10.776-47.578,5.738-48.686,6.475"/>
					<path fill="none" stroke="#6C757D" stroke-width="3" stroke-miterlimit="10" d="M94.969,75.35
						c-25.513-3.84-44.442,21.417-45.248,22.513"/>
					<path fill="none" stroke="#6C757D" stroke-width="3" stroke-miterlimit="10" d="M84.754,61.773
						c-25.69,4.792-34.969,35.424-35.354,36.74"/>
				</g>
				<g>
					<path fill="none" stroke="#6C757D" stroke-width="3" stroke-miterlimit="10" d="M1.368,90.889
						c22.3-10.776,47.578,5.738,48.686,6.475"/>
					<path fill="none" stroke="#6C757D" stroke-width="3" stroke-miterlimit="10" d="M5.329,75.35
						c25.514-3.84,44.442,21.417,45.248,22.513"/>
					<path fill="none" stroke="#6C757D" stroke-width="3" stroke-miterlimit="10" d="M15.544,61.773
						c25.691,4.792,34.97,35.424,35.355,36.74"/>
				</g>
			</g>
		</g>
		
			<line fill="none" stroke="#212529" stroke-width="9.1724" stroke-miterlimit="10" x1="1.368" y1="98.842" x2="98.93" y2="98.842"/>
	</g>
	<g>
		<g>
			<path fill="none" stroke="#212529" stroke-width="3" stroke-miterlimit="10" d="M48.765,78.828
				c-0.95-17.712-15.103-29.6-15.103-29.6c8.205-6.119,9.635-17.831,9.635-17.831h13.705c0,0,1.429,11.712,9.634,17.831
				c0,0-14.151,11.887-15.103,29.6"/>
		</g>
		<line fill="none" stroke="#212529" stroke-width="3" stroke-miterlimit="10" x1="50.149" y1="49.725" x2="50.149" y2="78.828"/>
		<circle fill="none" stroke="#212529" stroke-width="3" stroke-miterlimit="10" cx="50.149" cy="46.636" r="3.089"/>
		<line fill="none" stroke="#212529" stroke-width="3" stroke-miterlimit="10" x1="43.297" y1="31.397" x2="43.297" y2="22.533"/>
		<line fill="none" stroke="#212529" stroke-width="3" stroke-miterlimit="10" x1="50.054" y1="31.397" x2="50.054" y2="22.533"/>
		<line fill="none" stroke="#212529" stroke-width="3" stroke-miterlimit="10" x1="56.811" y1="31.397" x2="56.811" y2="22.533"/>
	</g>
</g>
</svg>
